<svg width="77" height="67" viewBox="0 0 77 67" fill="none" xmlns="http://www.w3.org/2000/svg">
<rect width="76.6974" height="67" rx="8.81579" fill="#F5844D"/>
<path d="M36.0409 23.4968L39.1628 21.1123M31.2598 38.2707L43.7474 28.7328M35.8444 45.8911L38.9663 43.5066M42.4078 43.9675C43.3206 44.0898 44.2445 43.8444 44.9763 43.2854C45.7082 42.7265 46.188 41.8997 46.3102 40.9869C46.4324 40.0742 46.1871 39.1503 45.6281 38.4184C45.0691 37.6866 44.2423 37.2068 43.3296 37.0845C42.4169 36.9623 41.4929 37.2076 40.7611 37.7666C40.0293 38.3256 39.5495 39.1524 39.4272 40.0651C39.305 40.9779 39.5503 41.9018 40.1093 42.6336C40.6683 43.3655 41.4951 43.8453 42.4078 43.9675ZM31.6776 29.9189C32.5904 30.0412 33.5143 29.7958 34.2461 29.2368C34.978 28.6779 35.4578 27.8511 35.58 26.9383C35.7023 26.0256 35.4569 25.1017 34.8979 24.3698C34.339 23.638 33.5122 23.1582 32.5994 23.0359C31.6867 22.9137 30.7628 23.159 30.0309 23.718C29.2991 24.277 28.8193 25.1038 28.697 26.0165C28.5748 26.9293 28.8202 27.8532 29.3791 28.585C29.9381 29.3169 30.7649 29.7967 31.6776 29.9189ZM26.8965 44.6928C27.8093 44.815 28.7332 44.5697 29.465 44.0107C30.1969 43.4517 30.6767 42.6249 30.7989 41.7122C30.9211 40.7994 30.6758 39.8755 30.1168 39.1437C29.5578 38.4119 28.731 37.932 27.8183 37.8098C26.9056 37.6876 25.9816 37.9329 25.2498 38.4919C24.518 39.0509 24.0381 39.8777 23.9159 40.7904C23.7937 41.7032 24.039 42.6271 24.598 43.3589C25.157 44.0907 25.9838 44.5706 26.8965 44.6928ZM47.1889 29.1936C48.1017 29.3159 49.0256 29.0705 49.7574 28.5116C50.4893 27.9526 50.9691 27.1258 51.0913 26.213C51.2136 25.3003 50.9682 24.3764 50.4092 23.6445C49.8503 22.9127 49.0235 22.4329 48.1107 22.3106C47.198 22.1884 46.2741 22.4338 45.5422 22.9927C44.8104 23.5517 44.3306 24.3785 44.2083 25.2913C44.0861 26.204 44.3315 27.1279 44.8904 27.8598C45.4494 28.5916 46.2762 29.0714 47.1889 29.1936Z" stroke="white" stroke-width="2.77778" stroke-linecap="round" stroke-linejoin="round"/>
</svg>
