<svg width="77" height="67" viewBox="0 0 77 67" fill="none" xmlns="http://www.w3.org/2000/svg">
<rect width="76.6974" height="67" rx="8.81579" fill="#F5844D"/>
<path d="M28.1429 24H21.8095C20.8102 24 20 24.8101 20 25.8095V40.2857C20 41.2851 20.8102 42.0952 21.8095 42.0952H28.1429" stroke="white" stroke-width="3.61905" stroke-linecap="round" stroke-linejoin="round"/>
<path d="M44.4297 42.0952H50.763C51.7624 42.0952 52.5725 41.2851 52.5725 40.2857V25.8095C52.5725 24.8101 51.7624 24 50.763 24H44.4297" stroke="white" stroke-width="3.61905" stroke-linecap="round" stroke-linejoin="round"/>
<path d="M36.2912 24L31.7656 33.0487H40.8169L36.2894 42.0952" stroke="white" stroke-width="3.61905" stroke-linecap="round" stroke-linejoin="round"/>
<path d="M54.3828 29.4297H56.1923C57.1917 29.4297 58.0019 30.2398 58.0019 31.2392V34.8583C58.0019 35.8577 57.1917 36.6678 56.1923 36.6678H54.3828V29.4297Z" fill="white"/>
</svg>
