<svg width="308" height="121" viewBox="0 0 308 121" fill="none" xmlns="http://www.w3.org/2000/svg">
<path d="M25 120.636H295C301.427 120.636 306.636 115.427 306.636 109V19C306.636 12.5734 301.427 7.36364 295 7.36364H35.2225C34.3849 7.36364 33.5496 7.27854 32.7293 7.10965L5.71268 1.5474C3.59967 1.11237 1.88712 3.26094 2.78244 5.22371L12.2487 25.9766C12.9834 27.5874 13.3636 29.3372 13.3636 31.1076V109C13.3636 115.427 18.5734 120.636 25 120.636Z" stroke="white" stroke-width="0.727273"/>
<path d="M34.084 45V32.616H35.398V45H34.084ZM34.948 45V43.794H42.238V45H34.948ZM34.948 39.24V38.07H41.662V39.24H34.948ZM34.948 33.822V32.616H42.13V33.822H34.948ZM50.5336 45V40.032C50.5336 39.288 50.3116 38.688 49.8676 38.232C49.4356 37.764 48.8596 37.53 48.1396 37.53C47.6476 37.53 47.2156 37.638 46.8436 37.854C46.4716 38.07 46.1776 38.364 45.9616 38.736C45.7456 39.108 45.6376 39.534 45.6376 40.014L45.0616 39.69C45.0616 39.054 45.2116 38.484 45.5116 37.98C45.8116 37.476 46.2136 37.08 46.7176 36.792C47.2336 36.504 47.8216 36.36 48.4816 36.36C49.1296 36.36 49.7056 36.516 50.2096 36.828C50.7136 37.14 51.1036 37.56 51.3796 38.088C51.6676 38.616 51.8116 39.192 51.8116 39.816V45H50.5336ZM44.3776 45V36.54H45.6376V45H44.3776ZM58.0746 45.18C57.2226 45.18 56.4606 44.988 55.7886 44.604C55.1166 44.22 54.5826 43.692 54.1866 43.02C53.8026 42.348 53.6106 41.592 53.6106 40.752C53.6106 39.924 53.8026 39.18 54.1866 38.52C54.5706 37.848 55.0926 37.32 55.7526 36.936C56.4126 36.552 57.1506 36.36 57.9666 36.36C58.7346 36.36 59.4126 36.534 60.0006 36.882C60.6006 37.23 61.0686 37.716 61.4046 38.34C61.7526 38.952 61.9266 39.66 61.9266 40.464C61.9266 40.56 61.9206 40.674 61.9086 40.806C61.8966 40.926 61.8726 41.07 61.8366 41.238H54.5106V40.158H61.1526L60.7026 40.554C60.7146 39.93 60.6066 39.396 60.3786 38.952C60.1626 38.496 59.8446 38.148 59.4246 37.908C59.0166 37.656 58.5186 37.53 57.9306 37.53C57.3186 37.53 56.7846 37.662 56.3286 37.926C55.8726 38.19 55.5126 38.562 55.2486 39.042C54.9966 39.51 54.8706 40.068 54.8706 40.716C54.8706 41.364 55.0026 41.934 55.2666 42.426C55.5426 42.918 55.9206 43.302 56.4006 43.578C56.8926 43.854 57.4566 43.992 58.0926 43.992C58.6086 43.992 59.0826 43.902 59.5146 43.722C59.9466 43.53 60.3126 43.248 60.6126 42.876L61.4226 43.704C61.0266 44.172 60.5346 44.538 59.9466 44.802C59.3706 45.054 58.7466 45.18 58.0746 45.18ZM63.8542 45V36.54H65.1142V45H63.8542ZM65.1142 40.068L64.5922 39.834C64.5922 38.766 64.8502 37.92 65.3662 37.296C65.8942 36.672 66.6142 36.36 67.5262 36.36C67.9462 36.36 68.3302 36.438 68.6782 36.594C69.0262 36.738 69.3502 36.972 69.6502 37.296L68.8222 38.178C68.6182 37.95 68.3902 37.788 68.1382 37.692C67.8982 37.596 67.6222 37.548 67.3102 37.548C66.6622 37.548 66.1342 37.764 65.7262 38.196C65.3182 38.616 65.1142 39.24 65.1142 40.068ZM74.1841 48.744C73.3321 48.744 72.5701 48.582 71.8981 48.258C71.2381 47.946 70.7041 47.502 70.2961 46.926L71.1241 46.098C71.4601 46.554 71.8861 46.908 72.4021 47.16C72.9181 47.412 73.5241 47.538 74.2201 47.538C75.1801 47.538 75.9421 47.28 76.5061 46.764C77.0821 46.248 77.3701 45.546 77.3701 44.658V42.552L77.6221 40.626L77.3701 38.718V36.54H78.6301V44.658C78.6301 45.474 78.4441 46.188 78.0721 46.8C77.7001 47.412 77.1781 47.886 76.5061 48.222C75.8461 48.57 75.0721 48.744 74.1841 48.744ZM74.2741 44.91C73.4941 44.91 72.7921 44.724 72.1681 44.352C71.5441 43.98 71.0521 43.47 70.6921 42.822C70.3321 42.174 70.1521 41.442 70.1521 40.626C70.1521 39.81 70.3261 39.084 70.6741 38.448C71.0341 37.8 71.5261 37.29 72.1501 36.918C72.7741 36.546 73.4761 36.36 74.2561 36.36C74.9161 36.36 75.5041 36.486 76.0201 36.738C76.5481 36.99 76.9681 37.35 77.2801 37.818C77.6041 38.274 77.8021 38.814 77.8741 39.438V41.832C77.8021 42.444 77.6041 42.984 77.2801 43.452C76.9561 43.908 76.5361 44.268 76.0201 44.532C75.5041 44.784 74.9221 44.91 74.2741 44.91ZM74.5081 43.704C75.0961 43.704 75.6061 43.578 76.0381 43.326C76.4821 43.074 76.8241 42.72 77.0641 42.264C77.3161 41.796 77.4421 41.25 77.4421 40.626C77.4421 40.014 77.3161 39.48 77.0641 39.024C76.8241 38.568 76.4821 38.208 76.0381 37.944C75.5941 37.68 75.0781 37.548 74.4901 37.548C73.9021 37.548 73.3741 37.68 72.9061 37.944C72.4501 38.208 72.0901 38.568 71.8261 39.024C71.5741 39.48 71.4481 40.014 71.4481 40.626C71.4481 41.226 71.5801 41.76 71.8441 42.228C72.1081 42.696 72.4681 43.062 72.9241 43.326C73.3801 43.578 73.9081 43.704 74.5081 43.704ZM83.9946 45.036L80.2866 36.54H81.6726L84.6606 43.632H84.1386L87.2886 36.54H88.6926L84.7146 45.036H83.9946ZM81.6906 48.564L84.0126 43.758L84.7146 45.036L83.0766 48.564H81.6906ZM95.3636 45.18C95.0636 45.18 94.8176 45.078 94.6256 44.874C94.4456 44.67 94.3556 44.43 94.3556 44.154C94.3556 43.854 94.4456 43.608 94.6256 43.416C94.8176 43.212 95.0636 43.11 95.3636 43.11C95.6516 43.11 95.8916 43.212 96.0836 43.416C96.2876 43.608 96.3896 43.854 96.3896 44.154C96.3896 44.43 96.2876 44.67 96.0836 44.874C95.8916 45.078 95.6516 45.18 95.3636 45.18ZM95.3636 39.51C95.0636 39.51 94.8176 39.408 94.6256 39.204C94.4456 39 94.3556 38.76 94.3556 38.484C94.3556 38.184 94.4456 37.938 94.6256 37.746C94.8176 37.554 95.0636 37.458 95.3636 37.458C95.6516 37.458 95.8916 37.554 96.0836 37.746C96.2876 37.938 96.3896 38.184 96.3896 38.484C96.3896 38.76 96.2876 39 96.0836 39.204C95.8916 39.408 95.6516 39.51 95.3636 39.51ZM104.91 45V32.616H106.206V45H104.91ZM102.3 33.786V32.616H106.026V33.786H102.3ZM110.344 45.18C110.044 45.18 109.798 45.078 109.606 44.874C109.414 44.67 109.318 44.424 109.318 44.136C109.318 43.848 109.414 43.608 109.606 43.416C109.798 43.212 110.044 43.11 110.344 43.11C110.632 43.11 110.872 43.212 111.064 43.416C111.256 43.608 111.352 43.848 111.352 44.136C111.352 44.424 111.256 44.67 111.064 44.874C110.872 45.078 110.632 45.18 110.344 45.18ZM117.906 45.18C117.102 45.18 116.388 45.024 115.764 44.712C115.152 44.4 114.672 43.974 114.324 43.434C113.976 42.882 113.802 42.258 113.802 41.562C113.802 41.01 113.91 40.506 114.125 40.05C114.354 39.582 114.672 39.186 115.08 38.862C115.488 38.526 115.962 38.298 116.502 38.178L116.646 38.556C116.166 38.424 115.758 38.214 115.422 37.926C115.086 37.638 114.828 37.296 114.648 36.9C114.468 36.492 114.378 36.066 114.378 35.622C114.378 34.986 114.528 34.434 114.828 33.966C115.14 33.486 115.56 33.108 116.088 32.832C116.628 32.556 117.234 32.418 117.906 32.418C118.59 32.418 119.196 32.556 119.724 32.832C120.264 33.108 120.684 33.486 120.984 33.966C121.284 34.434 121.434 34.986 121.434 35.622C121.434 36.066 121.344 36.492 121.164 36.9C120.996 37.296 120.744 37.638 120.408 37.926C120.072 38.214 119.658 38.424 119.166 38.556L119.31 38.178C119.862 38.298 120.336 38.526 120.732 38.862C121.14 39.186 121.452 39.582 121.668 40.05C121.896 40.506 122.01 41.01 122.01 41.562C122.01 42.258 121.836 42.882 121.488 43.434C121.152 43.974 120.672 44.4 120.048 44.712C119.436 45.024 118.722 45.18 117.906 45.18ZM117.906 43.992C118.458 43.992 118.944 43.884 119.364 43.668C119.796 43.452 120.132 43.152 120.372 42.768C120.612 42.372 120.732 41.928 120.732 41.436C120.732 40.932 120.612 40.494 120.372 40.122C120.132 39.738 119.796 39.438 119.364 39.222C118.944 38.994 118.458 38.88 117.906 38.88C117.366 38.88 116.88 38.994 116.448 39.222C116.028 39.438 115.692 39.738 115.44 40.122C115.2 40.494 115.08 40.932 115.08 41.436C115.08 41.928 115.2 42.372 115.44 42.768C115.692 43.152 116.028 43.452 116.448 43.668C116.868 43.884 117.354 43.992 117.906 43.992ZM117.906 37.854C118.578 37.854 119.124 37.656 119.544 37.26C119.976 36.852 120.192 36.33 120.192 35.694C120.192 35.058 119.976 34.542 119.544 34.146C119.124 33.75 118.578 33.552 117.906 33.552C117.246 33.552 116.7 33.75 116.268 34.146C115.836 34.542 115.62 35.058 115.62 35.694C115.62 36.33 115.836 36.852 116.268 37.26C116.7 37.656 117.246 37.854 117.906 37.854ZM129.601 45L125.281 40.662L129.529 36.54H131.095L126.469 40.986L126.505 40.266L131.275 45H129.601ZM124.147 45V32.256H125.407V45H124.147ZM134.574 45L131.316 36.54H132.63L135.204 43.56L134.736 43.578L137.292 36.54H138.03L140.586 43.578L140.118 43.56L142.674 36.54H144.006L140.73 45H139.992L137.382 38.07H137.922L135.33 45H134.574ZM151.801 45V40.032C151.801 39.288 151.579 38.688 151.135 38.232C150.703 37.764 150.127 37.53 149.407 37.53C148.915 37.53 148.483 37.638 148.111 37.854C147.739 38.07 147.445 38.364 147.229 38.736C147.013 39.108 146.905 39.534 146.905 40.014L146.329 39.69C146.329 39.054 146.479 38.484 146.779 37.98C147.079 37.476 147.481 37.08 147.985 36.792C148.501 36.504 149.089 36.36 149.749 36.36C150.397 36.36 150.973 36.51 151.477 36.81C151.981 37.098 152.371 37.5 152.647 38.016C152.935 38.532 153.079 39.132 153.079 39.816V45H151.801ZM145.645 45V32.256H146.905V45H145.645ZM159.303 41.04V39.834H165.045V41.04H159.303ZM170.856 40.896L175.482 32.616H176.958L172.26 40.896H170.856ZM170.856 41.724V40.896L171.414 40.536H180.234V41.724H170.856ZM177.102 45V36.738H178.398V45H177.102ZM182.696 45.18C182.396 45.18 182.15 45.078 181.958 44.874C181.766 44.67 181.67 44.424 181.67 44.136C181.67 43.848 181.766 43.608 181.958 43.416C182.15 43.212 182.396 43.11 182.696 43.11C182.984 43.11 183.224 43.212 183.416 43.416C183.608 43.608 183.704 43.848 183.704 44.136C183.704 44.424 183.608 44.67 183.416 44.874C183.224 45.078 182.984 45.18 182.696 45.18ZM187.018 45V32.616H188.314V45H187.018ZM184.408 33.786V32.616H188.134V33.786H184.408ZM196.574 45L192.254 40.662L196.502 36.54H198.068L193.442 40.986L193.478 40.266L198.248 45H196.574ZM191.12 45V32.256H192.38V45H191.12ZM201.546 45L198.288 36.54H199.602L202.176 43.56L201.708 43.578L204.264 36.54H205.002L207.558 43.578L207.09 43.56L209.646 36.54H210.978L207.702 45H206.964L204.354 38.07H204.894L202.302 45H201.546ZM218.774 45V40.032C218.774 39.288 218.552 38.688 218.108 38.232C217.676 37.764 217.1 37.53 216.38 37.53C215.888 37.53 215.456 37.638 215.084 37.854C214.712 38.07 214.418 38.364 214.202 38.736C213.986 39.108 213.878 39.534 213.878 40.014L213.302 39.69C213.302 39.054 213.452 38.484 213.752 37.98C214.052 37.476 214.454 37.08 214.958 36.792C215.474 36.504 216.062 36.36 216.722 36.36C217.37 36.36 217.946 36.51 218.45 36.81C218.954 37.098 219.344 37.5 219.62 38.016C219.908 38.532 220.052 39.132 220.052 39.816V45H218.774ZM212.618 45V32.256H213.878V45H212.618ZM38.098 73L33.166 60.616H34.606L38.872 71.542H38.35L42.652 60.616H44.056L39.088 73H38.098ZM47.9304 73.18C47.1144 73.18 46.3704 72.982 45.6984 72.586C45.0384 72.19 44.5104 71.656 44.1144 70.984C43.7304 70.312 43.5384 69.562 43.5384 68.734C43.5384 67.918 43.7304 67.18 44.1144 66.52C44.5104 65.86 45.0384 65.338 45.6984 64.954C46.3704 64.558 47.1144 64.36 47.9304 64.36C48.7584 64.36 49.5024 64.552 50.1624 64.936C50.8224 65.32 51.3444 65.848 51.7284 66.52C52.1244 67.18 52.3224 67.918 52.3224 68.734C52.3224 69.574 52.1244 70.33 51.7284 71.002C51.3444 71.662 50.8224 72.19 50.1624 72.586C49.5024 72.982 48.7584 73.18 47.9304 73.18ZM47.9304 71.956C48.5304 71.956 49.0584 71.818 49.5144 71.542C49.9824 71.266 50.3484 70.882 50.6124 70.39C50.8884 69.898 51.0264 69.346 51.0264 68.734C51.0264 68.122 50.8884 67.582 50.6124 67.114C50.3484 66.634 49.9824 66.256 49.5144 65.98C49.0584 65.704 48.5304 65.566 47.9304 65.566C47.3424 65.566 46.8144 65.704 46.3464 65.98C45.8784 66.256 45.5124 66.634 45.2484 67.114C44.9844 67.582 44.8524 68.122 44.8524 68.734C44.8524 69.358 44.9844 69.916 45.2484 70.408C45.5124 70.888 45.8784 71.266 46.3464 71.542C46.8144 71.818 47.3424 71.956 47.9304 71.956ZM54.3268 73V60.256H55.5868V73H54.3268ZM59.4553 73V60.976H60.7153V73H59.4553ZM57.3133 65.674V64.54H62.8393V65.674H57.3133ZM67.948 73.18C67.144 73.18 66.424 72.988 65.788 72.604C65.152 72.208 64.648 71.68 64.276 71.02C63.916 70.36 63.736 69.616 63.736 68.788C63.736 67.948 63.916 67.198 64.276 66.538C64.648 65.866 65.152 65.338 65.788 64.954C66.424 64.558 67.138 64.36 67.93 64.36C68.578 64.36 69.154 64.492 69.658 64.756C70.174 65.008 70.588 65.368 70.9 65.836C71.224 66.292 71.422 66.826 71.494 67.438V70.084C71.422 70.696 71.224 71.236 70.9 71.704C70.588 72.172 70.174 72.538 69.658 72.802C69.154 73.054 68.584 73.18 67.948 73.18ZM68.146 71.974C69.022 71.974 69.724 71.68 70.252 71.092C70.792 70.504 71.062 69.73 71.062 68.77C71.062 68.134 70.936 67.576 70.684 67.096C70.444 66.604 70.102 66.226 69.658 65.962C69.226 65.686 68.716 65.548 68.128 65.548C67.528 65.548 66.994 65.686 66.526 65.962C66.07 66.238 65.704 66.622 65.428 67.114C65.164 67.594 65.032 68.146 65.032 68.77C65.032 69.394 65.164 69.946 65.428 70.426C65.704 70.906 66.076 71.284 66.544 71.56C67.012 71.836 67.546 71.974 68.146 71.974ZM70.99 73V70.732L71.242 68.644L70.99 66.61V64.54H72.25V73H70.99ZM78.2973 76.744C77.4453 76.744 76.6833 76.582 76.0113 76.258C75.3513 75.946 74.8173 75.502 74.4093 74.926L75.2373 74.098C75.5733 74.554 75.9993 74.908 76.5153 75.16C77.0313 75.412 77.6373 75.538 78.3333 75.538C79.2933 75.538 80.0553 75.28 80.6193 74.764C81.1953 74.248 81.4833 73.546 81.4833 72.658V70.552L81.7353 68.626L81.4833 66.718V64.54H82.7433V72.658C82.7433 73.474 82.5573 74.188 82.1853 74.8C81.8133 75.412 81.2913 75.886 80.6193 76.222C79.9593 76.57 79.1853 76.744 78.2973 76.744ZM78.3873 72.91C77.6073 72.91 76.9053 72.724 76.2813 72.352C75.6573 71.98 75.1653 71.47 74.8053 70.822C74.4453 70.174 74.2653 69.442 74.2653 68.626C74.2653 67.81 74.4393 67.084 74.7873 66.448C75.1473 65.8 75.6393 65.29 76.2633 64.918C76.8873 64.546 77.5893 64.36 78.3693 64.36C79.0293 64.36 79.6173 64.486 80.1333 64.738C80.6613 64.99 81.0813 65.35 81.3933 65.818C81.7173 66.274 81.9153 66.814 81.9873 67.438V69.832C81.9153 70.444 81.7173 70.984 81.3933 71.452C81.0693 71.908 80.6493 72.268 80.1333 72.532C79.6173 72.784 79.0353 72.91 78.3873 72.91ZM78.6213 71.704C79.2093 71.704 79.7193 71.578 80.1513 71.326C80.5953 71.074 80.9373 70.72 81.1773 70.264C81.4293 69.796 81.5553 69.25 81.5553 68.626C81.5553 68.014 81.4293 67.48 81.1773 67.024C80.9373 66.568 80.5953 66.208 80.1513 65.944C79.7073 65.68 79.1913 65.548 78.6033 65.548C78.0153 65.548 77.4873 65.68 77.0193 65.944C76.5633 66.208 76.2033 66.568 75.9393 67.024C75.6873 67.48 75.5613 68.014 75.5613 68.626C75.5613 69.226 75.6933 69.76 75.9573 70.228C76.2213 70.696 76.5813 71.062 77.0373 71.326C77.4933 71.578 78.0213 71.704 78.6213 71.704ZM89.1879 73.18C88.3359 73.18 87.5739 72.988 86.9019 72.604C86.2299 72.22 85.6959 71.692 85.2999 71.02C84.9159 70.348 84.7239 69.592 84.7239 68.752C84.7239 67.924 84.9159 67.18 85.2999 66.52C85.6839 65.848 86.2059 65.32 86.8659 64.936C87.5259 64.552 88.2639 64.36 89.0799 64.36C89.8479 64.36 90.5259 64.534 91.1139 64.882C91.7139 65.23 92.1819 65.716 92.5179 66.34C92.8659 66.952 93.0399 67.66 93.0399 68.464C93.0399 68.56 93.0339 68.674 93.0219 68.806C93.0099 68.926 92.9859 69.07 92.9499 69.238H85.6239V68.158H92.2659L91.8159 68.554C91.8279 67.93 91.7199 67.396 91.4919 66.952C91.2759 66.496 90.9579 66.148 90.5379 65.908C90.1299 65.656 89.6319 65.53 89.0439 65.53C88.4319 65.53 87.8979 65.662 87.4419 65.926C86.9859 66.19 86.6259 66.562 86.3619 67.042C86.1099 67.51 85.9839 68.068 85.9839 68.716C85.9839 69.364 86.1159 69.934 86.3799 70.426C86.6559 70.918 87.0339 71.302 87.5139 71.578C88.0059 71.854 88.5699 71.992 89.2059 71.992C89.7219 71.992 90.1959 71.902 90.6279 71.722C91.0599 71.53 91.4259 71.248 91.7259 70.876L92.5359 71.704C92.1399 72.172 91.6479 72.538 91.0599 72.802C90.4839 73.054 89.8599 73.18 89.1879 73.18ZM99.9866 73.18C99.6866 73.18 99.4406 73.078 99.2486 72.874C99.0686 72.67 98.9786 72.43 98.9786 72.154C98.9786 71.854 99.0686 71.608 99.2486 71.416C99.4406 71.212 99.6866 71.11 99.9866 71.11C100.275 71.11 100.515 71.212 100.707 71.416C100.911 71.608 101.013 71.854 101.013 72.154C101.013 72.43 100.911 72.67 100.707 72.874C100.515 73.078 100.275 73.18 99.9866 73.18ZM99.9866 67.51C99.6866 67.51 99.4406 67.408 99.2486 67.204C99.0686 67 98.9786 66.76 98.9786 66.484C98.9786 66.184 99.0686 65.938 99.2486 65.746C99.4406 65.554 99.6866 65.458 99.9866 65.458C100.275 65.458 100.515 65.554 100.707 65.746C100.911 65.938 101.013 66.184 101.013 66.484C101.013 66.76 100.911 67 100.707 67.204C100.515 67.408 100.275 67.51 99.9866 67.51ZM110.739 73.18C109.923 73.18 109.191 73.024 108.543 72.712C107.895 72.4 107.349 71.95 106.905 71.362L107.787 70.48C108.087 70.936 108.489 71.296 108.993 71.56C109.509 71.812 110.085 71.938 110.721 71.938C111.321 71.938 111.849 71.824 112.305 71.596C112.761 71.356 113.115 71.026 113.367 70.606C113.631 70.174 113.763 69.67 113.763 69.094C113.763 68.506 113.637 68.002 113.385 67.582C113.133 67.15 112.791 66.82 112.359 66.592C111.927 66.364 111.441 66.25 110.901 66.25C110.385 66.25 109.911 66.322 109.479 66.466C109.059 66.598 108.675 66.814 108.327 67.114L108.291 66.25C108.507 66.01 108.753 65.812 109.029 65.656C109.305 65.5 109.611 65.38 109.947 65.296C110.295 65.212 110.679 65.17 111.099 65.17C111.927 65.17 112.641 65.35 113.241 65.71C113.841 66.058 114.297 66.532 114.609 67.132C114.933 67.732 115.095 68.41 115.095 69.166C115.095 69.946 114.909 70.636 114.537 71.236C114.165 71.836 113.649 72.31 112.989 72.658C112.341 73.006 111.591 73.18 110.739 73.18ZM108.327 67.114L107.625 66.394L108.165 60.616H109.371L108.777 66.52L108.327 67.114ZM108.489 61.786L108.165 60.616H114.537V61.786H108.489ZM121.901 73.18C120.989 73.18 120.155 72.922 119.399 72.406C118.643 71.878 118.037 71.134 117.581 70.174C117.137 69.214 116.915 68.086 116.915 66.79C116.915 65.482 117.137 64.36 117.581 63.424C118.025 62.476 118.619 61.744 119.363 61.228C120.119 60.7 120.953 60.436 121.865 60.436C122.789 60.436 123.623 60.694 124.367 61.21C125.123 61.726 125.723 62.464 126.167 63.424C126.611 64.372 126.833 65.5 126.833 66.808C126.833 68.104 126.611 69.232 126.167 70.192C125.723 71.152 125.129 71.89 124.385 72.406C123.641 72.922 122.813 73.18 121.901 73.18ZM121.865 71.938C122.573 71.938 123.197 71.74 123.737 71.344C124.289 70.936 124.721 70.354 125.033 69.598C125.345 68.83 125.501 67.894 125.501 66.79C125.501 65.698 125.345 64.774 125.033 64.018C124.721 63.25 124.289 62.668 123.737 62.272C123.197 61.876 122.573 61.678 121.865 61.678C121.169 61.678 120.545 61.876 119.993 62.272C119.453 62.668 119.027 63.244 118.715 64C118.403 64.756 118.247 65.686 118.247 66.79C118.247 67.894 118.403 68.83 118.715 69.598C119.027 70.354 119.453 70.936 119.993 71.344C120.545 71.74 121.169 71.938 121.865 71.938ZM129.856 73.18C129.556 73.18 129.31 73.078 129.118 72.874C128.926 72.67 128.83 72.424 128.83 72.136C128.83 71.848 128.926 71.608 129.118 71.416C129.31 71.212 129.556 71.11 129.856 71.11C130.144 71.11 130.384 71.212 130.576 71.416C130.768 71.608 130.864 71.848 130.864 72.136C130.864 72.424 130.768 72.67 130.576 72.874C130.384 73.078 130.144 73.18 129.856 73.18ZM132.465 68.896L137.091 60.616H138.567L133.869 68.896H132.465ZM132.465 69.724V68.896L133.023 68.536H141.843V69.724H132.465ZM138.711 73V64.738H140.007V73H138.711ZM148.119 73L143.187 60.616H144.627L148.893 71.542H148.371L152.673 60.616H154.077L149.109 73H148.119ZM159.883 69.04V67.834H165.625V69.04H159.883ZM175.216 73.18C174.4 73.18 173.668 73.024 173.02 72.712C172.372 72.4 171.826 71.95 171.382 71.362L172.264 70.48C172.564 70.936 172.966 71.296 173.47 71.56C173.986 71.812 174.562 71.938 175.198 71.938C175.798 71.938 176.326 71.824 176.782 71.596C177.238 71.356 177.592 71.026 177.844 70.606C178.108 70.174 178.24 69.67 178.24 69.094C178.24 68.506 178.114 68.002 177.862 67.582C177.61 67.15 177.268 66.82 176.836 66.592C176.404 66.364 175.918 66.25 175.378 66.25C174.862 66.25 174.388 66.322 173.956 66.466C173.536 66.598 173.152 66.814 172.804 67.114L172.768 66.25C172.984 66.01 173.23 65.812 173.506 65.656C173.782 65.5 174.088 65.38 174.424 65.296C174.772 65.212 175.156 65.17 175.576 65.17C176.404 65.17 177.118 65.35 177.718 65.71C178.318 66.058 178.774 66.532 179.086 67.132C179.41 67.732 179.572 68.41 179.572 69.166C179.572 69.946 179.386 70.636 179.014 71.236C178.642 71.836 178.126 72.31 177.466 72.658C176.818 73.006 176.068 73.18 175.216 73.18ZM172.804 67.114L172.102 66.394L172.642 60.616H173.848L173.254 66.52L172.804 67.114ZM172.966 61.786L172.642 60.616H179.014V61.786H172.966ZM182.612 73L187.364 61.354L188.642 61.444L183.98 73H182.612ZM180.47 61.786V60.616H188.642V61.444L188.066 61.786H180.47ZM190.676 73.18C190.376 73.18 190.13 73.078 189.938 72.874C189.746 72.67 189.65 72.424 189.65 72.136C189.65 71.848 189.746 71.608 189.938 71.416C190.13 71.212 190.376 71.11 190.676 71.11C190.964 71.11 191.204 71.212 191.396 71.416C191.588 71.608 191.684 71.848 191.684 72.136C191.684 72.424 191.588 72.67 191.396 72.874C191.204 73.078 190.964 73.18 190.676 73.18ZM197.783 73.18C196.991 73.18 196.271 72.994 195.623 72.622C194.987 72.238 194.477 71.728 194.093 71.092C193.721 70.456 193.535 69.748 193.535 68.968C193.535 67.912 193.901 66.88 194.633 65.872L198.521 60.616H200.069L196.217 65.71L195.749 65.89C195.917 65.674 196.109 65.494 196.325 65.35C196.553 65.194 196.811 65.074 197.099 64.99C197.387 64.906 197.717 64.864 198.089 64.864C198.821 64.864 199.487 65.044 200.087 65.404C200.687 65.752 201.167 66.232 201.527 66.844C201.887 67.456 202.067 68.152 202.067 68.932C202.067 69.712 201.875 70.426 201.491 71.074C201.107 71.71 200.591 72.22 199.943 72.604C199.295 72.988 198.575 73.18 197.783 73.18ZM197.801 71.956C198.341 71.956 198.833 71.824 199.277 71.56C199.733 71.284 200.093 70.918 200.357 70.462C200.621 69.994 200.753 69.484 200.753 68.932C200.753 68.368 200.621 67.858 200.357 67.402C200.093 66.946 199.733 66.586 199.277 66.322C198.833 66.046 198.341 65.908 197.801 65.908C197.249 65.908 196.745 66.046 196.289 66.322C195.845 66.586 195.491 66.946 195.227 67.402C194.975 67.846 194.849 68.356 194.849 68.932C194.849 69.496 194.975 70.012 195.227 70.48C195.491 70.936 195.845 71.296 196.289 71.56C196.745 71.824 197.249 71.956 197.801 71.956ZM208.483 73L203.551 60.616H204.991L209.257 71.542H208.735L213.037 60.616H214.441L209.473 73H208.483Z" fill="white"/>
<path d="M37.198 101L33.202 88.616H34.516L37.882 99.272H37.486L40.816 88.616H41.806L45.154 99.272H44.74L48.106 88.616H49.438L45.424 101H44.452L41.122 90.362H41.5L38.17 101H37.198ZM53.6746 101.18C52.8706 101.18 52.1506 100.988 51.5146 100.604C50.8786 100.208 50.3746 99.68 50.0026 99.02C49.6426 98.36 49.4626 97.616 49.4626 96.788C49.4626 95.948 49.6426 95.198 50.0026 94.538C50.3746 93.866 50.8786 93.338 51.5146 92.954C52.1506 92.558 52.8646 92.36 53.6566 92.36C54.3046 92.36 54.8806 92.492 55.3846 92.756C55.9006 93.008 56.3146 93.368 56.6266 93.836C56.9506 94.292 57.1486 94.826 57.2206 95.438V98.084C57.1486 98.696 56.9506 99.236 56.6266 99.704C56.3146 100.172 55.9006 100.538 55.3846 100.802C54.8806 101.054 54.3106 101.18 53.6746 101.18ZM53.8726 99.974C54.7486 99.974 55.4506 99.68 55.9786 99.092C56.5186 98.504 56.7886 97.73 56.7886 96.77C56.7886 96.134 56.6626 95.576 56.4106 95.096C56.1706 94.604 55.8286 94.226 55.3846 93.962C54.9526 93.686 54.4426 93.548 53.8546 93.548C53.2546 93.548 52.7206 93.686 52.2526 93.962C51.7966 94.238 51.4306 94.622 51.1546 95.114C50.8906 95.594 50.7586 96.146 50.7586 96.77C50.7586 97.394 50.8906 97.946 51.1546 98.426C51.4306 98.906 51.8026 99.284 52.2706 99.56C52.7386 99.836 53.2726 99.974 53.8726 99.974ZM56.7166 101V98.732L56.9686 96.644L56.7166 94.61V92.54H57.9766V101H56.7166ZM60.5319 101V92.54H61.7919V101H60.5319ZM61.7919 96.068L61.2699 95.834C61.2699 94.766 61.5279 93.92 62.0439 93.296C62.5719 92.672 63.2919 92.36 64.2039 92.36C64.6239 92.36 65.0079 92.438 65.3559 92.594C65.7039 92.738 66.0279 92.972 66.3279 93.296L65.4999 94.178C65.2959 93.95 65.0679 93.788 64.8159 93.692C64.5759 93.596 64.2999 93.548 63.9879 93.548C63.3399 93.548 62.8119 93.764 62.4039 94.196C61.9959 94.616 61.7919 95.24 61.7919 96.068ZM67.7389 101V92.54H68.9989V101H67.7389ZM68.9989 96.068L68.4769 95.834C68.4769 94.766 68.7349 93.92 69.2509 93.296C69.7789 92.672 70.4989 92.36 71.4109 92.36C71.8309 92.36 72.2149 92.438 72.5629 92.594C72.9109 92.738 73.2349 92.972 73.5349 93.296L72.7069 94.178C72.5029 93.95 72.2749 93.788 72.0229 93.692C71.7829 93.596 71.5069 93.548 71.1949 93.548C70.5469 93.548 70.0189 93.764 69.6109 94.196C69.2029 94.616 68.9989 95.24 68.9989 96.068ZM78.2488 101.18C77.4448 101.18 76.7248 100.988 76.0888 100.604C75.4528 100.208 74.9488 99.68 74.5768 99.02C74.2168 98.36 74.0368 97.616 74.0368 96.788C74.0368 95.948 74.2168 95.198 74.5768 94.538C74.9488 93.866 75.4528 93.338 76.0888 92.954C76.7248 92.558 77.4388 92.36 78.2308 92.36C78.8788 92.36 79.4548 92.492 79.9588 92.756C80.4748 93.008 80.8888 93.368 81.2008 93.836C81.5248 94.292 81.7228 94.826 81.7948 95.438V98.084C81.7228 98.696 81.5248 99.236 81.2008 99.704C80.8888 100.172 80.4748 100.538 79.9588 100.802C79.4548 101.054 78.8848 101.18 78.2488 101.18ZM78.4468 99.974C79.3228 99.974 80.0248 99.68 80.5528 99.092C81.0928 98.504 81.3628 97.73 81.3628 96.77C81.3628 96.134 81.2368 95.576 80.9848 95.096C80.7448 94.604 80.4028 94.226 79.9588 93.962C79.5268 93.686 79.0168 93.548 78.4288 93.548C77.8288 93.548 77.2948 93.686 76.8268 93.962C76.3708 94.238 76.0048 94.622 75.7288 95.114C75.4648 95.594 75.3328 96.146 75.3328 96.77C75.3328 97.394 75.4648 97.946 75.7288 98.426C76.0048 98.906 76.3768 99.284 76.8448 99.56C77.3128 99.836 77.8468 99.974 78.4468 99.974ZM81.2908 101V98.732L81.5428 96.644L81.2908 94.61V92.54H82.5508V101H81.2908ZM91.2621 101V96.032C91.2621 95.288 91.0401 94.688 90.5961 94.232C90.1641 93.764 89.5881 93.53 88.8681 93.53C88.3761 93.53 87.9441 93.638 87.5721 93.854C87.2001 94.07 86.9061 94.364 86.6901 94.736C86.4741 95.108 86.3661 95.534 86.3661 96.014L85.7901 95.69C85.7901 95.054 85.9401 94.484 86.2401 93.98C86.5401 93.476 86.9421 93.08 87.4461 92.792C87.9621 92.504 88.5501 92.36 89.2101 92.36C89.8581 92.36 90.4341 92.516 90.9381 92.828C91.4421 93.14 91.8321 93.56 92.1081 94.088C92.3961 94.616 92.5401 95.192 92.5401 95.816V101H91.2621ZM85.1061 101V92.54H86.3661V101H85.1061ZM96.1057 101V88.976H97.3657V101H96.1057ZM93.9637 93.674V92.54H99.4897V93.674H93.9637ZM104.051 101.036L100.343 92.54H101.729L104.717 99.632H104.195L107.345 92.54H108.749L104.771 101.036H104.051ZM101.747 104.564L104.069 99.758L104.771 101.036L103.133 104.564H101.747ZM115.42 101.18C115.12 101.18 114.874 101.078 114.682 100.874C114.502 100.67 114.412 100.43 114.412 100.154C114.412 99.854 114.502 99.608 114.682 99.416C114.874 99.212 115.12 99.11 115.42 99.11C115.708 99.11 115.948 99.212 116.14 99.416C116.344 99.608 116.446 99.854 116.446 100.154C116.446 100.43 116.344 100.67 116.14 100.874C115.948 101.078 115.708 101.18 115.42 101.18ZM115.42 95.51C115.12 95.51 114.874 95.408 114.682 95.204C114.502 95 114.412 94.76 114.412 94.484C114.412 94.184 114.502 93.938 114.682 93.746C114.874 93.554 115.12 93.458 115.42 93.458C115.708 93.458 115.948 93.554 116.14 93.746C116.344 93.938 116.446 94.184 116.446 94.484C116.446 94.76 116.344 95 116.14 95.204C115.948 95.408 115.708 95.51 115.42 95.51ZM126.173 101.18C125.357 101.18 124.625 101.024 123.977 100.712C123.329 100.4 122.783 99.95 122.339 99.362L123.221 98.48C123.521 98.936 123.923 99.296 124.427 99.56C124.943 99.812 125.519 99.938 126.155 99.938C126.755 99.938 127.283 99.824 127.739 99.596C128.195 99.356 128.549 99.026 128.801 98.606C129.065 98.174 129.197 97.67 129.197 97.094C129.197 96.506 129.071 96.002 128.819 95.582C128.567 95.15 128.225 94.82 127.793 94.592C127.361 94.364 126.875 94.25 126.335 94.25C125.819 94.25 125.345 94.322 124.913 94.466C124.493 94.598 124.109 94.814 123.761 95.114L123.725 94.25C123.941 94.01 124.187 93.812 124.463 93.656C124.739 93.5 125.045 93.38 125.381 93.296C125.729 93.212 126.113 93.17 126.533 93.17C127.361 93.17 128.075 93.35 128.675 93.71C129.275 94.058 129.731 94.532 130.043 95.132C130.367 95.732 130.529 96.41 130.529 97.166C130.529 97.946 130.343 98.636 129.971 99.236C129.599 99.836 129.083 100.31 128.423 100.658C127.775 101.006 127.025 101.18 126.173 101.18ZM123.761 95.114L123.059 94.394L123.599 88.616H124.805L124.211 94.52L123.761 95.114ZM123.923 89.786L123.599 88.616H129.971V89.786H123.923ZM135.499 101.036L131.791 92.54H133.177L136.165 99.632H135.643L138.793 92.54H140.197L136.219 101.036H135.499ZM133.195 104.564L135.517 99.758L136.219 101.036L134.581 104.564H133.195ZM141.637 101V92.54H142.897V101H141.637ZM142.897 96.068L142.375 95.834C142.375 94.766 142.633 93.92 143.149 93.296C143.677 92.672 144.397 92.36 145.309 92.36C145.729 92.36 146.113 92.438 146.461 92.594C146.809 92.738 147.133 92.972 147.433 93.296L146.605 94.178C146.401 93.95 146.173 93.788 145.921 93.692C145.681 93.596 145.405 93.548 145.093 93.548C144.445 93.548 143.917 93.764 143.509 94.196C143.101 94.616 142.897 95.24 142.897 96.068ZM151.173 101.18C150.717 101.18 150.279 101.12 149.859 101C149.439 100.868 149.055 100.688 148.707 100.46C148.371 100.232 148.077 99.962 147.825 99.65L148.635 98.822C148.971 99.23 149.349 99.536 149.769 99.74C150.201 99.932 150.681 100.028 151.209 100.028C151.773 100.028 152.211 99.92 152.523 99.704C152.847 99.488 153.009 99.188 153.009 98.804C153.009 98.444 152.895 98.162 152.667 97.958C152.439 97.754 152.145 97.592 151.785 97.472C151.437 97.352 151.065 97.238 150.669 97.13C150.273 97.01 149.895 96.866 149.535 96.698C149.175 96.518 148.881 96.272 148.653 95.96C148.437 95.648 148.329 95.24 148.329 94.736C148.329 94.256 148.443 93.842 148.671 93.494C148.911 93.134 149.247 92.858 149.679 92.666C150.123 92.462 150.645 92.36 151.245 92.36C151.881 92.36 152.457 92.474 152.973 92.702C153.489 92.93 153.903 93.266 154.215 93.71L153.405 94.52C153.153 94.196 152.835 93.95 152.451 93.782C152.079 93.602 151.659 93.512 151.191 93.512C150.651 93.512 150.237 93.62 149.949 93.836C149.673 94.04 149.535 94.31 149.535 94.646C149.535 94.97 149.649 95.228 149.877 95.42C150.105 95.6 150.393 95.75 150.741 95.87C151.101 95.978 151.479 96.092 151.875 96.212C152.271 96.32 152.649 96.47 153.009 96.662C153.369 96.842 153.657 97.094 153.873 97.418C154.101 97.73 154.215 98.156 154.215 98.696C154.215 99.452 153.939 100.058 153.387 100.514C152.847 100.958 152.109 101.18 151.173 101.18ZM159.159 101.72L164.091 87.95H165.279L160.347 101.72H159.159ZM172.618 101V88.508H174.292V101H172.618ZM170.062 90.02V88.508H174.112V90.02H170.062ZM177.022 102.98L178.138 100.838L178.714 100.694C178.654 100.826 178.576 100.934 178.48 101.018C178.396 101.102 178.288 101.144 178.156 101.144C177.904 101.144 177.67 101.042 177.454 100.838C177.25 100.622 177.148 100.358 177.148 100.046C177.148 99.698 177.262 99.41 177.49 99.182C177.718 98.942 178.006 98.822 178.354 98.822C178.666 98.822 178.942 98.942 179.182 99.182C179.422 99.41 179.542 99.698 179.542 100.046C179.542 100.178 179.512 100.34 179.452 100.532C179.404 100.712 179.302 100.946 179.146 101.234L177.958 103.484L177.022 102.98ZM181.295 99.974L185.903 95.114C186.371 94.634 186.737 94.22 187.001 93.872C187.265 93.512 187.451 93.182 187.559 92.882C187.679 92.582 187.739 92.27 187.739 91.946C187.739 91.31 187.535 90.812 187.127 90.452C186.719 90.092 186.191 89.912 185.543 89.912C184.907 89.912 184.349 90.068 183.869 90.38C183.389 90.68 182.963 91.148 182.591 91.784L181.403 90.794C181.895 89.978 182.489 89.366 183.185 88.958C183.881 88.538 184.685 88.328 185.597 88.328C186.365 88.328 187.031 88.478 187.595 88.778C188.171 89.078 188.615 89.498 188.927 90.038C189.239 90.578 189.395 91.208 189.395 91.928C189.395 92.444 189.329 92.906 189.197 93.314C189.077 93.722 188.855 94.142 188.531 94.574C188.219 94.994 187.781 95.498 187.217 96.086L183.491 99.92L181.295 99.974ZM181.295 101V99.974L182.735 99.488H189.683V101H181.295ZM194.903 101.18C194.051 101.18 193.289 101.03 192.617 100.73C191.957 100.418 191.399 99.968 190.943 99.38L192.095 98.228C192.371 98.648 192.749 98.984 193.229 99.236C193.721 99.476 194.267 99.596 194.867 99.596C195.431 99.596 195.923 99.488 196.343 99.272C196.775 99.056 197.111 98.756 197.351 98.372C197.603 97.976 197.729 97.508 197.729 96.968C197.729 96.416 197.609 95.948 197.369 95.564C197.129 95.18 196.805 94.892 196.397 94.7C196.001 94.496 195.563 94.394 195.083 94.394C194.591 94.394 194.141 94.454 193.733 94.574C193.337 94.694 192.959 94.898 192.599 95.186L192.617 94.106C192.821 93.854 193.055 93.65 193.319 93.494C193.583 93.338 193.883 93.218 194.219 93.134C194.555 93.05 194.945 93.008 195.389 93.008C196.253 93.008 196.985 93.188 197.585 93.548C198.185 93.908 198.641 94.394 198.953 95.006C199.277 95.618 199.439 96.302 199.439 97.058C199.439 97.85 199.241 98.558 198.845 99.182C198.461 99.806 197.927 100.298 197.243 100.658C196.559 101.006 195.779 101.18 194.903 101.18ZM192.599 95.186L191.681 94.268L192.239 88.508H193.787L193.157 94.43L192.599 95.186ZM192.581 90.02L192.239 88.508H198.809V90.02H192.581ZM200.946 102.98L202.062 100.838L202.638 100.694C202.578 100.826 202.5 100.934 202.404 101.018C202.32 101.102 202.212 101.144 202.08 101.144C201.828 101.144 201.594 101.042 201.378 100.838C201.174 100.622 201.072 100.358 201.072 100.046C201.072 99.698 201.186 99.41 201.414 99.182C201.642 98.942 201.93 98.822 202.278 98.822C202.59 98.822 202.866 98.942 203.106 99.182C203.346 99.41 203.466 99.698 203.466 100.046C203.466 100.178 203.436 100.34 203.376 100.532C203.328 100.712 203.226 100.946 203.07 101.234L201.882 103.484L200.946 102.98ZM210.073 101.18C209.137 101.18 208.279 100.916 207.499 100.388C206.731 99.86 206.119 99.116 205.663 98.156C205.207 97.184 204.979 96.044 204.979 94.736C204.979 93.428 205.201 92.294 205.645 91.334C206.101 90.374 206.713 89.636 207.481 89.12C208.249 88.592 209.095 88.328 210.019 88.328C210.967 88.328 211.825 88.592 212.593 89.12C213.361 89.636 213.967 90.374 214.411 91.334C214.867 92.294 215.095 93.434 215.095 94.754C215.095 96.062 214.867 97.202 214.411 98.174C213.967 99.134 213.361 99.878 212.593 100.406C211.837 100.922 210.997 101.18 210.073 101.18ZM210.037 99.578C210.697 99.578 211.273 99.398 211.765 99.038C212.269 98.666 212.665 98.12 212.953 97.4C213.241 96.68 213.385 95.792 213.385 94.736C213.385 93.68 213.241 92.798 212.953 92.09C212.665 91.37 212.269 90.83 211.765 90.47C211.261 90.098 210.679 89.912 210.019 89.912C209.371 89.912 208.795 90.098 208.291 90.47C207.787 90.83 207.391 91.37 207.103 92.09C206.827 92.798 206.689 93.68 206.689 94.736C206.689 95.792 206.827 96.68 207.103 97.4C207.391 98.12 207.787 98.666 208.291 99.038C208.795 99.398 209.377 99.578 210.037 99.578ZM221.885 101.18C220.949 101.18 220.091 100.916 219.311 100.388C218.543 99.86 217.931 99.116 217.475 98.156C217.019 97.184 216.791 96.044 216.791 94.736C216.791 93.428 217.013 92.294 217.457 91.334C217.913 90.374 218.525 89.636 219.293 89.12C220.061 88.592 220.907 88.328 221.831 88.328C222.779 88.328 223.637 88.592 224.405 89.12C225.173 89.636 225.779 90.374 226.223 91.334C226.679 92.294 226.907 93.434 226.907 94.754C226.907 96.062 226.679 97.202 226.223 98.174C225.779 99.134 225.173 99.878 224.405 100.406C223.649 100.922 222.809 101.18 221.885 101.18ZM221.849 99.578C222.509 99.578 223.085 99.398 223.577 99.038C224.081 98.666 224.477 98.12 224.765 97.4C225.053 96.68 225.197 95.792 225.197 94.736C225.197 93.68 225.053 92.798 224.765 92.09C224.477 91.37 224.081 90.83 223.577 90.47C223.073 90.098 222.491 89.912 221.831 89.912C221.183 89.912 220.607 90.098 220.103 90.47C219.599 90.83 219.203 91.37 218.915 92.09C218.639 92.798 218.501 93.68 218.501 94.736C218.501 95.792 218.639 96.68 218.915 97.4C219.203 98.12 219.599 98.666 220.103 99.038C220.607 99.398 221.189 99.578 221.849 99.578ZM233.698 101.18C232.762 101.18 231.904 100.916 231.124 100.388C230.356 99.86 229.744 99.116 229.288 98.156C228.832 97.184 228.604 96.044 228.604 94.736C228.604 93.428 228.826 92.294 229.27 91.334C229.726 90.374 230.338 89.636 231.106 89.12C231.874 88.592 232.72 88.328 233.644 88.328C234.592 88.328 235.45 88.592 236.218 89.12C236.986 89.636 237.592 90.374 238.036 91.334C238.492 92.294 238.72 93.434 238.72 94.754C238.72 96.062 238.492 97.202 238.036 98.174C237.592 99.134 236.986 99.878 236.218 100.406C235.462 100.922 234.622 101.18 233.698 101.18ZM233.662 99.578C234.322 99.578 234.898 99.398 235.39 99.038C235.894 98.666 236.29 98.12 236.578 97.4C236.866 96.68 237.01 95.792 237.01 94.736C237.01 93.68 236.866 92.798 236.578 92.09C236.29 91.37 235.894 90.83 235.39 90.47C234.886 90.098 234.304 89.912 233.644 89.912C232.996 89.912 232.42 90.098 231.916 90.47C231.412 90.83 231.016 91.37 230.728 92.09C230.452 92.798 230.314 93.68 230.314 94.736C230.314 95.792 230.452 96.68 230.728 97.4C231.016 98.12 231.412 98.666 231.916 99.038C232.42 99.398 233.002 99.578 233.662 99.578ZM249.974 101L245.978 96.626L249.938 92.45H251.9L247.49 97.058L247.562 96.122L252.062 101H249.974ZM244.502 101V88.148H246.122V101H244.502ZM253.186 101V92.45H254.806V101H253.186ZM258.964 101V95.834C258.964 95.198 258.766 94.7 258.37 94.34C257.986 93.968 257.5 93.782 256.912 93.782C256.516 93.782 256.162 93.866 255.85 94.034C255.538 94.202 255.286 94.436 255.094 94.736C254.902 95.036 254.806 95.396 254.806 95.816L254.14 95.492C254.14 94.844 254.278 94.28 254.554 93.8C254.842 93.32 255.232 92.948 255.724 92.684C256.216 92.408 256.768 92.27 257.38 92.27C257.98 92.27 258.52 92.402 259 92.666C259.492 92.93 259.876 93.302 260.152 93.782C260.44 94.262 260.584 94.832 260.584 95.492V101H258.964ZM264.742 101V95.834C264.742 95.198 264.544 94.7 264.148 94.34C263.764 93.968 263.284 93.782 262.708 93.782C262.312 93.782 261.952 93.866 261.628 94.034C261.316 94.202 261.064 94.436 260.872 94.736C260.68 95.036 260.584 95.396 260.584 95.816L259.666 95.492C259.702 94.832 259.876 94.268 260.188 93.8C260.512 93.32 260.926 92.948 261.43 92.684C261.934 92.408 262.486 92.27 263.086 92.27C263.71 92.27 264.268 92.402 264.76 92.666C265.252 92.93 265.642 93.302 265.93 93.782C266.23 94.262 266.38 94.838 266.38 95.51V101H264.742ZM271.302 101.18C270.822 101.18 270.366 101.12 269.934 101C269.514 100.868 269.124 100.688 268.764 100.46C268.404 100.22 268.092 99.938 267.828 99.614L268.872 98.57C269.184 98.954 269.544 99.242 269.952 99.434C270.36 99.614 270.816 99.704 271.32 99.704C271.824 99.704 272.214 99.62 272.49 99.452C272.766 99.272 272.904 99.026 272.904 98.714C272.904 98.402 272.79 98.162 272.562 97.994C272.346 97.814 272.064 97.67 271.716 97.562C271.368 97.442 270.996 97.328 270.6 97.22C270.216 97.1 269.85 96.95 269.502 96.77C269.154 96.59 268.866 96.344 268.638 96.032C268.422 95.72 268.314 95.306 268.314 94.79C268.314 94.274 268.44 93.83 268.692 93.458C268.944 93.074 269.292 92.78 269.736 92.576C270.192 92.372 270.738 92.27 271.374 92.27C272.046 92.27 272.64 92.39 273.156 92.63C273.684 92.858 274.116 93.206 274.452 93.674L273.408 94.718C273.168 94.406 272.868 94.166 272.508 93.998C272.16 93.83 271.764 93.746 271.32 93.746C270.852 93.746 270.492 93.83 270.24 93.998C270 94.154 269.88 94.376 269.88 94.664C269.88 94.952 269.988 95.174 270.204 95.33C270.42 95.486 270.702 95.618 271.05 95.726C271.41 95.834 271.782 95.948 272.166 96.068C272.55 96.176 272.916 96.326 273.264 96.518C273.612 96.71 273.894 96.968 274.11 97.292C274.338 97.616 274.452 98.042 274.452 98.57C274.452 99.374 274.164 100.01 273.588 100.478C273.024 100.946 272.262 101.18 271.302 101.18Z" fill="white"/>
</svg>
